<?xml version="1.0" encoding="UTF-8" standalone="no"?>
<svg
   xmlns:dc="http://purl.org/dc/elements/1.1/"
   xmlns:cc="http://creativecommons.org/ns#"
   xmlns:rdf="http://www.w3.org/1999/02/22-rdf-syntax-ns#"
   xmlns:svg="http://www.w3.org/2000/svg"
   xmlns="http://www.w3.org/2000/svg"
   xmlns:sodipodi="http://sodipodi.sourceforge.net/DTD/sodipodi-0.dtd"
   xmlns:inkscape="http://www.inkscape.org/namespaces/inkscape"
   width="1381.3768mm"
   height="493.26645mm"
   viewBox="0 0 1381.3768 493.26645"
   version="1.1"
   id="svg8"
   inkscape:version="1.0.1 (3bc2e813f5, 2020-09-07)"
   sodipodi:docname="logo_retrozero.svg"
   inkscape:export-filename="C:\Users\xa\Desktop\retrozero\logo_retrozero_v2.png"
   inkscape:export-xdpi="73.580002"
   inkscape:export-ydpi="73.580002">
  <defs
     id="defs2">
    <clipPath
       clipPathUnits="userSpaceOnUse"
       id="clipPath849">
      <path
         d="M 0,0 H 1562.5 V 1593.75 H 0 Z"
         clip-rule="evenodd"
         id="path847" />
    </clipPath>
    <clipPath
       clipPathUnits="userSpaceOnUse"
       id="clipPath863">
      <path
         d="M 0,0 H 1562.5 V 1562.5 H 0 Z"
         clip-rule="evenodd"
         id="path861" />
    </clipPath>
    <clipPath
       clipPathUnits="userSpaceOnUse"
       id="clipPath881">
      <path
         d="M 0,0 H 711 V 58 H 0 Z"
         id="path879" />
    </clipPath>
    <clipPath
       clipPathUnits="userSpaceOnUse"
       id="clipPath899">
      <path
         d="m 187.26624,593.07794 h 396.875 v 396.875 h -396.875 z"
         clip-rule="evenodd"
         id="path897" />
    </clipPath>
  </defs>
  <sodipodi:namedview
     id="base"
     pagecolor="#ffffff"
     bordercolor="#666666"
     borderopacity="1.0"
     inkscape:pageopacity="0.0"
     inkscape:pageshadow="2"
     inkscape:zoom="0.24748738"
     inkscape:cx="2825.4759"
     inkscape:cy="1292.9837"
     inkscape:document-units="mm"
     inkscape:current-layer="layer2"
     inkscape:document-rotation="0"
     showgrid="false"
     inkscape:window-width="1920"
     inkscape:window-height="1017"
     inkscape:window-x="-8"
     inkscape:window-y="-8"
     inkscape:window-maximized="1"
     showguides="false"
     fit-margin-top="10"
     fit-margin-left="10"
     fit-margin-right="10"
     fit-margin-bottom="10" />
  <metadata
     id="metadata5">
    <rdf:RDF>
      <cc:Work
         rdf:about="">
        <dc:format>image/svg+xml</dc:format>
        <dc:type
           rdf:resource="http://purl.org/dc/dcmitype/StillImage" />
        <dc:title></dc:title>
      </cc:Work>
    </rdf:RDF>
  </metadata>
  <g
     inkscape:groupmode="layer"
     id="layer2"
     inkscape:label="Layer 2"
     style="display:inline"
     transform="translate(232.49355,-4.2053753)">
    <g
       id="g874"
       transform="matrix(14.08454,0,0,14.08454,209.37873,-2065.0378)"
       style="fill:#35b729;fill-opacity:1">
      <path
         d="m -13.86182,154.99858 c -5.198769,0 -9.428255,4.22949 -9.428255,9.42826 0,5.19877 4.229486,9.42825 9.428255,9.42825 5.1987697,0 9.4282557,-4.22962 9.4282557,-9.42825 0,-5.19871 -4.229486,-9.42826 -9.4282557,-9.42826 z m 0,15.69799 c -3.457109,0 -6.269665,-2.81262 -6.269665,-6.26967 0,-3.45704 2.812556,-6.26966 6.269665,-6.26966 3.457108,0 6.2696657,2.81255 6.2696657,6.26966 0,3.45705 -2.8125577,6.26967 -6.2696657,6.26967 z"
         style="fill:#35b729;fill-opacity:1;fill-rule:nonzero;stroke:none;stroke-width:0.0672039"
         id="path905-2" />
      <path
         d="m 0.597495,168.37191 2.035812,-0.44428 0.305914,-2.06223 -1.792197,-1.00241 -1.471973,-0.6586 -0.04334,-0.88266 1.374791,-0.78367 1.710746,-1.18951 -0.50645,-2.02183 -2.039374,-0.24052 -1.61209,-0.0452 -0.377556,-0.79886 0.970158,-1.25019 1.125262,-1.75363 -1.241663,-1.67418 -1.976067,0.55833 -1.506714,0.57513 -0.654635,-0.59341 0.418142,-1.52634 0.368279,-2.0508 -1.787627,-1.0717 -1.612085,1.27204 -1.171903,1.10806 -0.832187,-0.29778 -0.19758,-1.56996 -0.444355,-2.03581 -2.062223,-0.30598 -1.002416,1.7922 -0.658601,1.47204 -0.882657,0.0433 -0.783664,-1.37473 -1.189511,-1.71081 -2.021834,0.50631 -0.240522,2.03944 -0.04516,1.61216 -0.798853,0.37775 -1.250197,-0.97022 -1.753622,-1.1254 -1.674188,1.24166 0.558331,1.97614 0.575132,1.50664 -0.593412,0.65464 -1.526337,-0.41794 -2.050799,-0.36848 -1.071702,1.78776 1.272038,1.61216 1.10806,1.1719 -0.297781,0.83199 -1.569953,0.19778 -2.035745,0.44435 -0.306047,2.06182 1.792197,1.00262 1.472037,0.65866 0.04328,0.88273 -1.374659,0.78333 -1.710813,1.18998 0.506248,2.0219 2.039508,0.24032 1.612157,0.0453 0.377755,0.79845 -0.970225,1.25034 -1.125399,1.75362 1.241595,1.67425 1.976134,-0.55846 1.506715,-0.5752 0.654633,0.59321 -0.417942,1.52667 -0.368479,2.05073 1.787761,1.0715 1.612159,-1.2719 1.171903,-1.10799 0.831918,0.29771 0.197782,1.57002 0.444353,2.03581 2.061752,0.30578 1.00255,-1.79199 0.658734,-1.47204 0.88279,-0.0434 0.783399,1.37472 1.189846,1.71082 2.0219,-0.50645 0.240256,-2.03958 0.04523,-1.61189 0.79872,-0.37755 1.250332,0.97016 1.753488,1.12526 1.674322,-1.24166 -0.558466,-1.97606 -0.575133,-1.50672 0.593143,-0.65464 1.526672,0.41808 2.05073,0.36835 1.071502,-1.7877 -1.271903,-1.61195 -1.108061,-1.17191 0.297783,-0.83205 z m -14.459282,6.15549 c -5.569333,0 -10.100295,-4.53096 -10.100295,-10.1003 0,-5.56933 4.530962,-10.10029 10.100295,-10.10029 5.5694,0 10.100295,4.53096 10.100295,10.10029 6.6e-5,5.56934 -4.530897,10.1003 -10.100295,10.1003 z"
         style="fill:#35b729;fill-opacity:1;fill-rule:nonzero;stroke:none;stroke-width:0.0672039"
         id="path903-2" />
    </g>
    <g
       aria-label="RetroZero"
       id="text973"
       style="font-size:11.2889px;line-height:1.25;font-family:'Lucida Fax';-inkscape-font-specification:'Lucida Fax';letter-spacing:0px;word-spacing:0px;writing-mode:lr-tb;fill:#000000;fill-opacity:1;stroke-width:0.265;stroke-miterlimit:4;stroke-dasharray:none"
       transform="matrix(14.08454,0,0,14.08454,-898.31483,-1510.212)">
      <path
         d="m 92.314809,113.76148 q 1.02729,0 1.659469,0.21449 0.643467,0.2032 0.936978,0.7112 0.304801,0.49671 0.304801,1.38854 0,0.54186 -0.146756,0.95955 -0.135467,0.4064 -0.462845,0.65476 -0.327378,0.24835 -0.891823,0.31609 v 0.0564 q 0.2032,0.0339 0.417689,0.15805 0.225778,0.12417 0.41769,0.37253 0.191911,0.23707 0.282222,0.64347 l 0.677334,2.42711 H 93.692055 L 93.093743,119.293 q -0.1016,-0.38382 -0.3048,-0.53058 -0.191911,-0.14675 -0.541867,-0.14675 -0.767645,0 -1.298224,0 -0.519289,-0.0113 -0.880534,-0.0226 -0.349956,-0.0113 -0.632178,-0.0226 l 0.03387,-1.25307 h 2.810937 q 0.451556,0 0.7112,-0.0903 0.270934,-0.1016 0.372534,-0.34995 0.112889,-0.24836 0.112889,-0.68863 0,-0.45155 -0.112889,-0.68862 -0.1016,-0.24835 -0.372534,-0.33867 -0.259644,-0.1016 -0.7112,-0.1016 -1.061157,0 -1.794936,0.0113 -0.733778,0.0113 -1.004712,0.0339 l -0.169333,-1.23049 q 0.474134,-0.0564 0.891823,-0.079 0.417689,-0.0226 0.914401,-0.0226 0.496711,-0.0113 1.196623,-0.0113 z m -1.298223,0.11289 v 7.78934 h -1.704624 v -7.78934 z"
         style="font-style:normal;font-variant:normal;font-weight:bold;font-stretch:normal;font-size:11.2889px;font-family:Exo2;-inkscape-font-specification:'Exo2 Bold';fill:#000000;fill-opacity:1;stroke-width:0.265;stroke-miterlimit:4;stroke-dasharray:none"
         id="path873" />
      <path
         d="m 99.093778,115.94024 q 1.411112,0 2.020712,0.48542 0.62089,0.47414 0.62089,1.4224 0.0113,0.76765 -0.38382,1.15147 -0.39511,0.37253 -1.365959,0.37253 h -3.115737 v -0.93697 h 2.652892 q 0.383822,0 0.485424,-0.15805 0.11289,-0.16933 0.11289,-0.46284 -0.0113,-0.39511 -0.237069,-0.54187 -0.21449,-0.15805 -0.733779,-0.15805 -0.462845,0 -0.72249,0.12418 -0.259644,0.12418 -0.361244,0.47414 -0.1016,0.34995 -0.1016,1.016 0,0.69991 0.124177,1.08373 0.124178,0.37254 0.41769,0.51929 0.3048,0.14676 0.835378,0.14676 0.383823,0 0.948267,-0.0226 0.57573,-0.0339 1.15147,-0.1016 l 0.15804,1.02729 q -0.32737,0.15804 -0.74506,0.24835 -0.41769,0.0903 -0.85796,0.12418 -0.440268,0.0452 -0.846668,0.0452 -1.061157,0 -1.715913,-0.3048 -0.643467,-0.31609 -0.936979,-0.95956 -0.282222,-0.64347 -0.282222,-1.64818 0,-1.09502 0.293511,-1.73849 0.293512,-0.64347 0.92569,-0.92569 0.632179,-0.28222 1.659469,-0.28222 z"
         style="font-style:normal;font-variant:normal;font-weight:bold;font-stretch:normal;font-size:11.2889px;font-family:Exo2;-inkscape-font-specification:'Exo2 Bold';fill:#000000;fill-opacity:1;stroke-width:0.265;stroke-miterlimit:4;stroke-dasharray:none"
         id="path875" />
      <path
         d="m 104.99786,114.54042 v 5.33965 q 0,0.3048 0.13547,0.44026 0.14676,0.12418 0.47413,0.12418 h 0.72249 l 0.18063,1.12889 q -0.2032,0.0677 -0.49672,0.11289 -0.29351,0.0564 -0.58702,0.079 -0.29351,0.0339 -0.49671,0.0339 -0.75636,0 -1.18533,-0.4064 -0.41769,-0.4064 -0.41769,-1.14018 l -0.0113,-5.71218 z m 1.55787,1.54657 v 1.09503 h -4.21076 v -1.03858 l 1.08374,-0.0564 z"
         style="font-style:normal;font-variant:normal;font-weight:bold;font-stretch:normal;font-size:11.2889px;font-family:Exo2;-inkscape-font-specification:'Exo2 Bold';fill:#000000;fill-opacity:1;stroke-width:0.265;stroke-miterlimit:4;stroke-dasharray:none"
         id="path877" />
      <path
         d="m 108.75706,116.08699 0.2032,1.10632 0.15805,0.14675 v 4.32365 h -1.67076 v -5.57672 z m 2.72063,-0.14675 -0.15805,1.54658 h -0.46284 q -0.39511,0 -0.82409,0.11289 -0.42898,0.11289 -1.08373,0.33866 l -0.11289,-0.93697 q 0.58702,-0.51929 1.18533,-0.79023 0.59831,-0.27093 1.16276,-0.27093 z"
         style="font-style:normal;font-variant:normal;font-weight:bold;font-stretch:normal;font-size:11.2889px;font-family:Exo2;-inkscape-font-specification:'Exo2 Bold';fill:#000000;fill-opacity:1;stroke-width:0.265;stroke-miterlimit:4;stroke-dasharray:none"
         id="path880" />
      <path
         d="m 114.82482,115.94024 q 1.04986,0 1.68204,0.29351 0.63218,0.28222 0.90311,0.92569 0.28223,0.64347 0.28223,1.7272 0,1.06116 -0.28223,1.70463 -0.27093,0.64346 -0.90311,0.92569 -0.63218,0.28222 -1.68204,0.28222 -1.03858,0 -1.68205,-0.28222 -0.63218,-0.28223 -0.9144,-0.92569 -0.28222,-0.64347 -0.28222,-1.70463 0,-1.08373 0.28222,-1.7272 0.28222,-0.64347 0.9144,-0.92569 0.64347,-0.29351 1.68205,-0.29351 z m 0,1.2192 q -0.42898,0 -0.67734,0.14676 -0.24835,0.14675 -0.34995,0.51929 -0.1016,0.37253 -0.1016,1.06115 0,0.67734 0.1016,1.04987 0.1016,0.37253 0.34995,0.51929 0.24836,0.13547 0.67734,0.13547 0.42897,0 0.67733,-0.13547 0.24836,-0.14676 0.34996,-0.51929 0.1016,-0.37253 0.1016,-1.04987 0,-0.68862 -0.1016,-1.06115 -0.1016,-0.37254 -0.34996,-0.51929 -0.24836,-0.14676 -0.67733,-0.14676 z"
         style="font-style:normal;font-variant:normal;font-weight:bold;font-stretch:normal;font-size:11.2889px;font-family:Exo2;-inkscape-font-specification:'Exo2 Bold';fill:#000000;fill-opacity:1;stroke-width:0.265;stroke-miterlimit:4;stroke-dasharray:none"
         id="path882" />
      <path
         d="m 122.2924,115.15002 1.89653,0.0113 -3.7592,5.22677 -1.90783,-0.0113 z m 1.98684,5.22676 v 1.28693 h -5.75734 v -1.28693 z m -0.0903,-6.50241 v 1.28693 h -5.57672 v -1.28693 z"
         style="font-style:normal;font-variant:normal;font-weight:bold;font-stretch:normal;font-size:11.2889px;font-family:Exo2;-inkscape-font-specification:'Exo2 Bold';fill:#000000;fill-opacity:1;stroke-width:0.265;stroke-miterlimit:4;stroke-dasharray:none"
         id="path884" />
      <path
         d="m 128.02714,115.94024 q 1.41111,0 2.02071,0.48542 0.62089,0.47414 0.62089,1.4224 0.0113,0.76765 -0.38382,1.15147 -0.39511,0.37253 -1.36596,0.37253 h -3.11573 v -0.93697 h 2.65289 q 0.38382,0 0.48542,-0.15805 0.11289,-0.16933 0.11289,-0.46284 -0.0113,-0.39511 -0.23707,-0.54187 -0.21449,-0.15805 -0.73378,-0.15805 -0.46284,0 -0.72249,0.12418 -0.25964,0.12418 -0.36124,0.47414 -0.1016,0.34995 -0.1016,1.016 0,0.69991 0.12418,1.08373 0.12417,0.37254 0.41769,0.51929 0.3048,0.14676 0.83537,0.14676 0.38383,0 0.94827,-0.0226 0.57574,-0.0339 1.15147,-0.1016 l 0.15804,1.02729 q -0.32737,0.15804 -0.74506,0.24835 -0.41769,0.0903 -0.85796,0.12418 -0.44027,0.0452 -0.84667,0.0452 -1.06115,0 -1.71591,-0.3048 -0.64347,-0.31609 -0.93698,-0.95956 -0.28222,-0.64347 -0.28222,-1.64818 0,-1.09502 0.29351,-1.73849 0.29351,-0.64347 0.92569,-0.92569 0.63218,-0.28222 1.65947,-0.28222 z"
         style="font-style:normal;font-variant:normal;font-weight:bold;font-stretch:normal;font-size:11.2889px;font-family:Exo2;-inkscape-font-specification:'Exo2 Bold';fill:#000000;fill-opacity:1;stroke-width:0.265;stroke-miterlimit:4;stroke-dasharray:none"
         id="path886" />
      <path
         d="m 133.06198,116.08699 0.2032,1.10632 0.15805,0.14675 v 4.32365 h -1.67076 v -5.57672 z m 2.72063,-0.14675 -0.15805,1.54658 h -0.46284 q -0.39512,0 -0.82409,0.11289 -0.42898,0.11289 -1.08374,0.33866 L 133.141,117.0014 q 0.58703,-0.51929 1.18534,-0.79023 0.59831,-0.27093 1.16275,-0.27093 z"
         style="font-style:normal;font-variant:normal;font-weight:bold;font-stretch:normal;font-size:11.2889px;font-family:Exo2;-inkscape-font-specification:'Exo2 Bold';fill:#000000;fill-opacity:1;stroke-width:0.265;stroke-miterlimit:4;stroke-dasharray:none"
         id="path888" />
      <path
         d="m 139.12973,115.94024 q 1.04987,0 1.68205,0.29351 0.63218,0.28222 0.90311,0.92569 0.28222,0.64347 0.28222,1.7272 0,1.06116 -0.28222,1.70463 -0.27093,0.64346 -0.90311,0.92569 -0.63218,0.28222 -1.68205,0.28222 -1.03858,0 -1.68204,-0.28222 -0.63218,-0.28223 -0.9144,-0.92569 -0.28223,-0.64347 -0.28223,-1.70463 0,-1.08373 0.28223,-1.7272 0.28222,-0.64347 0.9144,-0.92569 0.64346,-0.29351 1.68204,-0.29351 z m 0,1.2192 q -0.42898,0 -0.67733,0.14676 -0.24836,0.14675 -0.34996,0.51929 -0.1016,0.37253 -0.1016,1.06115 0,0.67734 0.1016,1.04987 0.1016,0.37253 0.34996,0.51929 0.24835,0.13547 0.67733,0.13547 0.42898,0 0.67734,-0.13547 0.24835,-0.14676 0.34995,-0.51929 0.1016,-0.37253 0.1016,-1.04987 0,-0.68862 -0.1016,-1.06115 -0.1016,-0.37254 -0.34995,-0.51929 -0.24836,-0.14676 -0.67734,-0.14676 z"
         style="font-style:normal;font-variant:normal;font-weight:bold;font-stretch:normal;font-size:11.2889px;font-family:Exo2;-inkscape-font-specification:'Exo2 Bold';fill:#000000;fill-opacity:1;stroke-width:0.265;stroke-miterlimit:4;stroke-dasharray:none"
         id="path890" />
    </g>
    <g
       aria-label="Electric Vehicles"
       id="text973-8"
       style="font-size:5.64444px;line-height:1.25;font-family:'Lucida Fax';-inkscape-font-specification:'Lucida Fax';letter-spacing:0px;word-spacing:0px;writing-mode:lr-tb;stroke-width:0.264583"
       transform="matrix(14.08454,0,0,14.08454,-898.31483,-1510.212)">
      <path
         d="m 89.687956,123.30961 q 0.316088,0 0.637821,0.006 0.321733,0 0.632178,0.0113 0.310444,0.0113 0.581377,0.0395 l -0.03951,0.62654 h -1.495777 q -0.141111,0 -0.214488,0.0734 -0.06773,0.0734 -0.06773,0.21449 v 1.98685 q 0,0.14111 0.06773,0.21449 0.07338,0.0734 0.214488,0.0734 h 1.495777 l 0.03951,0.62654 q -0.270933,0.0226 -0.581377,0.0395 -0.310445,0.0113 -0.632178,0.0113 -0.321733,0.006 -0.637821,0.006 -0.372533,0 -0.603955,-0.21449 -0.225778,-0.22013 -0.225778,-0.57009 v -2.35937 q 0,-0.3556 0.225778,-0.57009 0.231422,-0.21449 0.603955,-0.21449 z m -0.728133,1.58044 h 2.331154 v 0.6096 h -2.331154 z"
         style="font-style:normal;font-variant:normal;font-weight:bold;font-stretch:normal;font-size:5.64444px;font-family:'Exo 2';-inkscape-font-specification:'Exo 2 Bold';fill:#000000;stroke-width:0.264583"
         id="path893" />
      <path
         d="m 92.939148,123.2701 -0.0056,3.05929 q 0,0.14111 0.08467,0.21448 0.08467,0.0677 0.248356,0.0677 h 0.225777 l 0.09596,0.56444 q -0.06773,0.0339 -0.191911,0.0564 -0.124178,0.0282 -0.254,0.0395 -0.129822,0.0169 -0.220133,0.0169 -0.378178,0 -0.598311,-0.19756 -0.220133,-0.19755 -0.220133,-0.55315 v -3.26813 z"
         style="font-style:normal;font-variant:normal;font-weight:bold;font-stretch:normal;font-size:5.64444px;font-family:'Exo 2';-inkscape-font-specification:'Exo 2 Bold';fill:#000000;stroke-width:0.264583"
         id="path895" />
      <path
         d="m 95.270297,124.35948 q 0.705555,0 1.010355,0.24271 0.310444,0.23706 0.310444,0.7112 0.0056,0.38382 -0.191911,0.57573 -0.197555,0.18627 -0.682977,0.18627 h -1.557866 v -0.46849 h 1.326444 q 0.191911,0 0.242711,-0.079 0.05644,-0.0847 0.05644,-0.23142 -0.0056,-0.19755 -0.118533,-0.27093 -0.107244,-0.079 -0.366889,-0.079 -0.231422,0 -0.361244,0.0621 -0.129822,0.0621 -0.180622,0.23706 -0.0508,0.17498 -0.0508,0.508 0,0.34996 0.06209,0.54187 0.06209,0.18627 0.208844,0.25964 0.1524,0.0734 0.417689,0.0734 0.191911,0 0.474133,-0.0113 0.287866,-0.0169 0.575733,-0.0508 l 0.07902,0.51365 q -0.163689,0.079 -0.372533,0.12417 -0.208844,0.0452 -0.428978,0.0621 -0.220133,0.0226 -0.423333,0.0226 -0.530577,0 -0.857955,-0.1524 -0.321733,-0.15804 -0.468488,-0.47978 -0.141111,-0.32173 -0.141111,-0.82409 0,-0.54751 0.146755,-0.86924 0.146756,-0.32173 0.462844,-0.46284 0.316089,-0.14111 0.829733,-0.14111 z"
         style="font-style:normal;font-variant:normal;font-weight:bold;font-stretch:normal;font-size:5.64444px;font-family:'Exo 2';-inkscape-font-specification:'Exo 2 Bold';fill:#000000;stroke-width:0.264583"
         id="path898" />
      <path
         d="m 98.431179,124.35948 q 0.1524,0 0.333022,0.0169 0.180622,0.0113 0.361244,0.0508 0.186267,0.0339 0.338667,0.1016 l -0.09031,0.52493 q -0.225778,-0.006 -0.434622,-0.0113 -0.2032,-0.006 -0.366889,-0.006 -0.254,0 -0.400755,0.0677 -0.146756,0.0677 -0.214489,0.24271 -0.06209,0.16934 -0.06209,0.47414 0,0.31044 0.06209,0.48542 0.06773,0.17498 0.214489,0.24271 0.146755,0.0677 0.400755,0.0677 0.09031,0 0.231422,-0.006 0.141111,-0.006 0.3048,-0.0113 0.163689,-0.0113 0.321733,-0.0339 l 0.07902,0.53058 q -0.225777,0.1016 -0.513644,0.14675 -0.287866,0.0452 -0.570088,0.0452 -0.519289,0 -0.829733,-0.14111 -0.3048,-0.14676 -0.440266,-0.46849 -0.135467,-0.32173 -0.135467,-0.85795 0,-0.53623 0.135467,-0.85796 0.141111,-0.32173 0.451555,-0.46284 0.310444,-0.14111 0.824088,-0.14111 z"
         style="font-style:normal;font-variant:normal;font-weight:bold;font-stretch:normal;font-size:5.64444px;font-family:'Exo 2';-inkscape-font-specification:'Exo 2 Bold';fill:#000000;stroke-width:0.264583"
         id="path900" />
      <path
         d="m 101.09535,123.65956 v 2.66983 q 0,0.1524 0.0677,0.22013 0.0734,0.0621 0.23707,0.0621 h 0.36124 l 0.0903,0.56444 q -0.1016,0.0339 -0.24835,0.0564 -0.14676,0.0282 -0.29351,0.0395 -0.14676,0.0169 -0.24836,0.0169 -0.37818,0 -0.59266,-0.2032 -0.20885,-0.2032 -0.20885,-0.57009 l -0.006,-2.85609 z m 0.77893,0.77329 v 0.54751 h -2.105375 v -0.51928 l 0.541865,-0.0282 z"
         style="font-style:normal;font-variant:normal;font-weight:bold;font-stretch:normal;font-size:5.64444px;font-family:'Exo 2';-inkscape-font-specification:'Exo 2 Bold';fill:#000000;stroke-width:0.264583"
         id="path902" />
      <path
         d="m 102.97495,124.43285 0.1016,0.55316 0.079,0.0734 v 2.16182 h -0.83538 v -2.78836 z m 1.36031,-0.0734 -0.079,0.77328 h -0.23142 q -0.19755,0 -0.41204,0.0564 -0.21449,0.0564 -0.54187,0.16933 l -0.0564,-0.46849 q 0.29351,-0.25964 0.59266,-0.39511 0.29916,-0.13546 0.58138,-0.13546 z"
         style="font-style:normal;font-variant:normal;font-weight:bold;font-stretch:normal;font-size:5.64444px;font-family:'Exo 2';-inkscape-font-specification:'Exo 2 Bold';fill:#000000;stroke-width:0.264583"
         id="path904" />
      <path
         d="m 105.58267,124.43285 v 2.78836 h -0.82974 v -2.78836 z m -0.23142,-1.23048 q 0.24835,0 0.24835,0.254 v 0.29915 q 0,0.254 -0.24835,0.254 H 104.99 q -0.24835,0 -0.24835,-0.254 v -0.29915 q 0,-0.254 0.24835,-0.254 z"
         style="font-style:normal;font-variant:normal;font-weight:bold;font-stretch:normal;font-size:5.64444px;font-family:'Exo 2';-inkscape-font-specification:'Exo 2 Bold';fill:#000000;stroke-width:0.264583"
         id="path906" />
      <path
         d="m 107.58644,124.35948 q 0.1524,0 0.33302,0.0169 0.18062,0.0113 0.36124,0.0508 0.18627,0.0339 0.33867,0.1016 l -0.0903,0.52493 q -0.22578,-0.006 -0.43462,-0.0113 -0.2032,-0.006 -0.36689,-0.006 -0.254,0 -0.40076,0.0677 -0.14675,0.0677 -0.21448,0.24271 -0.0621,0.16934 -0.0621,0.47414 0,0.31044 0.0621,0.48542 0.0677,0.17498 0.21448,0.24271 0.14676,0.0677 0.40076,0.0677 0.0903,0 0.23142,-0.006 0.14111,-0.006 0.3048,-0.0113 0.16369,-0.0113 0.32173,-0.0339 l 0.079,0.53058 q -0.22578,0.1016 -0.51365,0.14675 -0.28786,0.0452 -0.57009,0.0452 -0.51928,0 -0.82973,-0.14111 -0.3048,-0.14676 -0.44027,-0.46849 -0.13546,-0.32173 -0.13546,-0.85795 0,-0.53623 0.13546,-0.85796 0.14112,-0.32173 0.45156,-0.46284 0.31044,-0.14111 0.82409,-0.14111 z"
         style="font-style:normal;font-variant:normal;font-weight:bold;font-stretch:normal;font-size:5.64444px;font-family:'Exo 2';-inkscape-font-specification:'Exo 2 Bold';fill:#000000;stroke-width:0.264583"
         id="path908" />
      <path
         d="m 113.48486,123.32654 -1.06115,3.6576 q -0.0282,0.1016 -0.11289,0.16933 -0.079,0.0677 -0.19191,0.0677 h -0.79022 q -0.11854,0 -0.2032,-0.0677 -0.079,-0.0677 -0.1016,-0.16933 l -1.0668,-3.6576 h 0.89182 l 0.7112,2.81093 q 0.0226,0.10725 0.0452,0.22014 0.0282,0.10724 0.0452,0.21449 h 0.14675 q 0.0169,-0.10725 0.0395,-0.22014 0.0282,-0.11289 0.0564,-0.22013 l 0.70555,-2.80529 z"
         style="font-style:normal;font-variant:normal;font-weight:bold;font-stretch:normal;font-size:5.64444px;font-family:'Exo 2';-inkscape-font-specification:'Exo 2 Bold';fill:#000000;stroke-width:0.264583"
         id="path910" />
      <path
         d="m 114.97499,124.35948 q 0.70556,0 1.01036,0.24271 0.31044,0.23706 0.31044,0.7112 0.006,0.38382 -0.19191,0.57573 -0.19756,0.18627 -0.68298,0.18627 h -1.55786 v -0.46849 h 1.32644 q 0.19191,0 0.24271,-0.079 0.0564,-0.0847 0.0564,-0.23142 -0.006,-0.19755 -0.11853,-0.27093 -0.10724,-0.079 -0.36689,-0.079 -0.23142,0 -0.36124,0.0621 -0.12982,0.0621 -0.18062,0.23706 -0.0508,0.17498 -0.0508,0.508 0,0.34996 0.0621,0.54187 0.0621,0.18627 0.20884,0.25964 0.1524,0.0734 0.41769,0.0734 0.19191,0 0.47413,-0.0113 0.28787,-0.0169 0.57573,-0.0508 l 0.079,0.51365 q -0.16369,0.079 -0.37254,0.12417 -0.20884,0.0452 -0.42897,0.0621 -0.22014,0.0226 -0.42334,0.0226 -0.53057,0 -0.85795,-0.1524 -0.32174,-0.15804 -0.46849,-0.47978 -0.14111,-0.32173 -0.14111,-0.82409 0,-0.54751 0.14675,-0.86924 0.14676,-0.32173 0.46285,-0.46284 0.31609,-0.14111 0.82973,-0.14111 z"
         style="font-style:normal;font-variant:normal;font-weight:bold;font-stretch:normal;font-size:5.64444px;font-family:'Exo 2';-inkscape-font-specification:'Exo 2 Bold';fill:#000000;stroke-width:0.264583"
         id="path912" />
      <path
         d="m 118.77934,124.35948 q 0.79022,0 0.79022,0.77328 v 2.08845 h -0.84102 v -1.8288 q 0,-0.18627 -0.0677,-0.254 -0.0621,-0.0734 -0.22578,-0.0734 -0.18062,0 -0.37253,0.0677 -0.19192,0.0677 -0.47414,0.22014 l -0.0734,-0.43462 q 0.31045,-0.27094 0.63218,-0.41205 0.32173,-0.14675 0.63218,-0.14675 z m -1.10631,-1.08938 0.006,0.9652 q 0,0.22013 -0.0282,0.41769 -0.0226,0.19755 -0.0564,0.33302 l 0.079,0.0734 v 2.16182 h -0.83538 v -3.95111 z"
         style="font-style:normal;font-variant:normal;font-weight:bold;font-stretch:normal;font-size:5.64444px;font-family:'Exo 2';-inkscape-font-specification:'Exo 2 Bold';fill:#000000;stroke-width:0.264583"
         id="path914" />
      <path
         d="m 121.08227,124.43285 v 2.78836 h -0.82973 v -2.78836 z m -0.23142,-1.23048 q 0.24835,0 0.24835,0.254 v 0.29915 q 0,0.254 -0.24835,0.254 h -0.36125 q -0.24835,0 -0.24835,-0.254 v -0.29915 q 0,-0.254 0.24835,-0.254 z"
         style="font-style:normal;font-variant:normal;font-weight:bold;font-stretch:normal;font-size:5.64444px;font-family:'Exo 2';-inkscape-font-specification:'Exo 2 Bold';fill:#000000;stroke-width:0.264583"
         id="path916" />
      <path
         d="m 123.08604,124.35948 q 0.1524,0 0.33302,0.0169 0.18063,0.0113 0.36125,0.0508 0.18626,0.0339 0.33866,0.1016 l -0.0903,0.52493 q -0.22577,-0.006 -0.43462,-0.0113 -0.2032,-0.006 -0.36689,-0.006 -0.254,0 -0.40075,0.0677 -0.14676,0.0677 -0.21449,0.24271 -0.0621,0.16934 -0.0621,0.47414 0,0.31044 0.0621,0.48542 0.0677,0.17498 0.21449,0.24271 0.14675,0.0677 0.40075,0.0677 0.0903,0 0.23142,-0.006 0.14112,-0.006 0.3048,-0.0113 0.16369,-0.0113 0.32174,-0.0339 l 0.079,0.53058 q -0.22578,0.1016 -0.51364,0.14675 -0.28787,0.0452 -0.57009,0.0452 -0.51929,0 -0.82974,-0.14111 -0.3048,-0.14676 -0.44026,-0.46849 -0.13547,-0.32173 -0.13547,-0.85795 0,-0.53623 0.13547,-0.85796 0.14111,-0.32173 0.45155,-0.46284 0.31045,-0.14111 0.82409,-0.14111 z"
         style="font-style:normal;font-variant:normal;font-weight:bold;font-stretch:normal;font-size:5.64444px;font-family:'Exo 2';-inkscape-font-specification:'Exo 2 Bold';fill:#000000;stroke-width:0.264583"
         id="path918" />
      <path
         d="m 125.50185,123.2701 -0.006,3.05929 q 0,0.14111 0.0847,0.21448 0.0847,0.0677 0.24835,0.0677 h 0.22578 l 0.096,0.56444 q -0.0677,0.0339 -0.19192,0.0564 -0.12417,0.0282 -0.254,0.0395 -0.12982,0.0169 -0.22013,0.0169 -0.37818,0 -0.59831,-0.19756 -0.22013,-0.19755 -0.22013,-0.55315 v -3.26813 z"
         style="font-style:normal;font-variant:normal;font-weight:bold;font-stretch:normal;font-size:5.64444px;font-family:'Exo 2';-inkscape-font-specification:'Exo 2 Bold';fill:#000000;stroke-width:0.264583"
         id="path920" />
      <path
         d="m 127.833,124.35948 q 0.70556,0 1.01036,0.24271 0.31044,0.23706 0.31044,0.7112 0.006,0.38382 -0.19191,0.57573 -0.19755,0.18627 -0.68298,0.18627 h -1.55786 v -0.46849 h 1.32644 q 0.19191,0 0.24271,-0.079 0.0565,-0.0847 0.0565,-0.23142 -0.006,-0.19755 -0.11854,-0.27093 -0.10724,-0.079 -0.36688,-0.079 -0.23143,0 -0.36125,0.0621 -0.12982,0.0621 -0.18062,0.23706 -0.0508,0.17498 -0.0508,0.508 0,0.34996 0.0621,0.54187 0.0621,0.18627 0.20884,0.25964 0.1524,0.0734 0.41769,0.0734 0.19191,0 0.47413,-0.0113 0.28787,-0.0169 0.57574,-0.0508 l 0.079,0.51365 q -0.16369,0.079 -0.37253,0.12417 -0.20885,0.0452 -0.42898,0.0621 -0.22013,0.0226 -0.42333,0.0226 -0.53058,0 -0.85796,-0.1524 -0.32173,-0.15804 -0.46849,-0.47978 -0.14111,-0.32173 -0.14111,-0.82409 0,-0.54751 0.14676,-0.86924 0.14675,-0.32173 0.46284,-0.46284 0.31609,-0.14111 0.82973,-0.14111 z"
         style="font-style:normal;font-variant:normal;font-weight:bold;font-stretch:normal;font-size:5.64444px;font-family:'Exo 2';-inkscape-font-specification:'Exo 2 Bold';fill:#000000;stroke-width:0.264583"
         id="path922" />
      <path
         d="m 130.75682,124.35948 q 0.2032,0 0.44027,0.0169 0.23706,0.0113 0.46284,0.0339 0.22578,0.0226 0.40076,0.0564 l -0.0564,0.51929 q -0.27093,-0.006 -0.54751,-0.006 -0.27093,-0.006 -0.53058,-0.006 -0.22013,-0.006 -0.33866,0.006 -0.11854,0.0113 -0.16934,0.0564 -0.0452,0.0395 -0.0452,0.14675 0,0.12418 0.0847,0.16934 0.0847,0.0395 0.28223,0.0903 l 0.72813,0.17498 q 0.34995,0.0903 0.51929,0.27093 0.16933,0.17498 0.16933,0.53058 0,0.34995 -0.12982,0.53622 -0.12982,0.18626 -0.41205,0.25964 -0.28222,0.0677 -0.72813,0.0677 -0.17498,0 -0.51929,-0.0169 -0.34431,-0.0169 -0.75635,-0.0847 l 0.0564,-0.51929 q 0.1016,0.006 0.25965,0.0113 0.15804,0 0.34431,0 0.18626,0 0.37253,0 0.28787,0 0.44027,-0.0113 0.1524,-0.0169 0.20884,-0.0677 0.0565,-0.0508 0.0565,-0.1524 0,-0.12417 -0.096,-0.16933 -0.096,-0.0452 -0.3048,-0.096 l -0.70555,-0.17498 q -0.26529,-0.0734 -0.41205,-0.18627 -0.14675,-0.11289 -0.20884,-0.27658 -0.0564,-0.16369 -0.0564,-0.38946 0,-0.28787 0.11289,-0.4572 0.11853,-0.17498 0.37818,-0.254 0.26529,-0.079 0.69991,-0.079 z"
         style="font-style:normal;font-variant:normal;font-weight:bold;font-stretch:normal;font-size:5.64444px;font-family:'Exo 2';-inkscape-font-specification:'Exo 2 Bold';fill:#000000;stroke-width:0.264583"
         id="path924" />
    </g>
    <g
       aria-label="RETROFIT, RECYCLE, RE-USE"
       id="text973-8-0"
       style="font-size:3.52778px;line-height:1.25;font-family:'Lucida Fax';-inkscape-font-specification:'Lucida Fax';letter-spacing:0.410104px;word-spacing:0px;writing-mode:lr-tb;stroke-width:0.264583"
       transform="matrix(14.08454,0,0,14.08454,-898.31483,-1510.212)">
      <path
         d="m 89.254695,139.8994 v 0.9966 h -0.474487 v -2.55059 h 0.777876 q 0.261056,0 0.446264,0.0547 0.186972,0.0529 0.305153,0.14993 0.119945,0.097 0.174625,0.23284 0.05644,0.13405 0.05644,0.29633 0,0.12876 -0.03881,0.24342 -0.03704,0.11465 -0.109361,0.20814 -0.07056,0.0935 -0.176389,0.16404 -0.10407,0.0705 -0.238125,0.11289 0.08996,0.0512 0.155222,0.1464 l 0.638528,0.94192 H 90.34477 q -0.06174,0 -0.105834,-0.0247 -0.04233,-0.0247 -0.07232,-0.0705 l -0.536223,-0.81669 q -0.02999,-0.0459 -0.06703,-0.0653 -0.03528,-0.0194 -0.105834,-0.0194 z m 0,-0.34043 h 0.296333 q 0.134056,0 0.232834,-0.0335 0.100542,-0.0335 0.164042,-0.0917 0.06526,-0.06 0.09701,-0.14111 0.03175,-0.0811 0.03175,-0.17815 0,-0.19403 -0.128764,-0.2981 -0.127001,-0.10407 -0.38982,-0.10407 h -0.303389 z"
         style="font-style:normal;font-variant:normal;font-weight:bold;font-stretch:normal;font-size:3.52778px;font-family:Lato;-inkscape-font-specification:'Lato Bold';fill:#393939;fill-opacity:1;stroke-width:0.264583"
         id="path927" />
      <path
         d="m 93.093797,138.34541 v 0.37747 h -1.130654 v 0.70732 h 0.890765 v 0.36513 h -0.890765 v 0.72143 h 1.130654 v 0.37924 h -1.608668 v -2.55059 z"
         style="font-style:normal;font-variant:normal;font-weight:bold;font-stretch:normal;font-size:3.52778px;font-family:Lato;-inkscape-font-specification:'Lato Bold';fill:#393939;fill-opacity:1;stroke-width:0.264583"
         id="path929" />
      <path
         d="m 95.712285,138.34541 v 0.38982 h -0.767292 v 2.16077 h -0.474487 v -2.16077 h -0.77082 v -0.38982 z"
         style="font-style:normal;font-variant:normal;font-weight:bold;font-stretch:normal;font-size:3.52778px;font-family:Lato;-inkscape-font-specification:'Lato Bold';fill:#393939;fill-opacity:1;stroke-width:0.264583"
         id="path931" />
      <path
         d="m 96.914373,139.8994 v 0.9966 h -0.474486 v -2.55059 h 0.777875 q 0.261056,0 0.446265,0.0547 0.186972,0.0529 0.305152,0.14993 0.119945,0.097 0.174626,0.23284 0.05644,0.13405 0.05644,0.29633 0,0.12876 -0.0388,0.24342 -0.03704,0.11465 -0.109362,0.20814 -0.07055,0.0935 -0.176389,0.16404 -0.104069,0.0705 -0.238125,0.11289 0.08996,0.0512 0.155222,0.1464 l 0.638529,0.94192 h -0.426862 q -0.06174,0 -0.105833,-0.0247 -0.04233,-0.0247 -0.07232,-0.0705 l -0.536222,-0.81669 q -0.02999,-0.0459 -0.06703,-0.0653 -0.03528,-0.0194 -0.105833,-0.0194 z m 0,-0.34043 h 0.296334 q 0.134055,0 0.232833,-0.0335 0.100542,-0.0335 0.164042,-0.0917 0.06526,-0.06 0.09701,-0.14111 0.03175,-0.0811 0.03175,-0.17815 0,-0.19403 -0.128764,-0.2981 -0.127,-0.10407 -0.38982,-0.10407 h -0.303389 z"
         style="font-style:normal;font-variant:normal;font-weight:bold;font-stretch:normal;font-size:3.52778px;font-family:Lato;-inkscape-font-specification:'Lato Bold';fill:#393939;fill-opacity:1;stroke-width:0.264583"
         id="path933" />
      <path
         d="m 101.50666,139.6207 q 0,0.28046 -0.0935,0.52035 -0.0935,0.23813 -0.26282,0.41275 -0.16933,0.17463 -0.40746,0.2734 -0.23812,0.097 -0.5274,0.097 -0.28928,0 -0.529169,-0.097 -0.238125,-0.0988 -0.409222,-0.2734 -0.169334,-0.17462 -0.26282,-0.41275 -0.09349,-0.23989 -0.09349,-0.52035 0,-0.28045 0.09349,-0.51858 0.09349,-0.23989 0.26282,-0.41451 0.171097,-0.17463 0.409222,-0.27164 0.239889,-0.0988 0.529169,-0.0988 0.28928,0 0.5274,0.0988 0.23813,0.0988 0.40746,0.2734 0.16933,0.17286 0.26282,0.41275 0.0935,0.23813 0.0935,0.51858 z m -0.48684,0 q 0,-0.2099 -0.0564,-0.3757 -0.0547,-0.16757 -0.15875,-0.28399 -0.10407,-0.11642 -0.254,-0.17815 -0.14817,-0.0617 -0.33514,-0.0617 -0.18697,0 -0.336905,0.0617 -0.14993,0.0617 -0.255764,0.17815 -0.104069,0.11642 -0.160514,0.28399 -0.05644,0.1658 -0.05644,0.3757 0,0.20991 0.05644,0.37748 0.05645,0.1658 0.160514,0.28222 0.105834,0.11465 0.255764,0.17639 0.149935,0.0617 0.336905,0.0617 0.18697,0 0.33514,-0.0617 0.14993,-0.0617 0.254,-0.17639 0.10407,-0.11642 0.15875,-0.28222 0.0564,-0.16757 0.0564,-0.37748 z"
         style="font-style:normal;font-variant:normal;font-weight:bold;font-stretch:normal;font-size:3.52778px;font-family:Lato;-inkscape-font-specification:'Lato Bold';fill:#393939;fill-opacity:1;stroke-width:0.264583"
         id="path935" />
      <path
         d="m 103.89937,138.34541 v 0.37747 h -1.13065 v 0.75495 h 0.95426 v 0.37923 h -0.95426 v 1.03894 h -0.47802 v -2.55059 z"
         style="font-style:normal;font-variant:normal;font-weight:bold;font-stretch:normal;font-size:3.52778px;font-family:Lato;-inkscape-font-specification:'Lato Bold';fill:#393939;fill-opacity:1;stroke-width:0.264583"
         id="path937" />
      <path
         d="m 105.21611,140.896 h -0.47625 v -2.55059 h 0.47625 z"
         style="font-style:normal;font-variant:normal;font-weight:bold;font-stretch:normal;font-size:3.52778px;font-family:Lato;-inkscape-font-specification:'Lato Bold';fill:#393939;fill-opacity:1;stroke-width:0.264583"
         id="path939" />
      <path
         d="m 107.99688,138.34541 v 0.38982 h -0.76729 v 2.16077 h -0.47449 v -2.16077 h -0.77082 v -0.38982 z"
         style="font-style:normal;font-variant:normal;font-weight:bold;font-stretch:normal;font-size:3.52778px;font-family:Lato;-inkscape-font-specification:'Lato Bold';fill:#393939;fill-opacity:1;stroke-width:0.264583"
         id="path941" />
      <path
         d="m 108.27469,140.62788 q 0,-0.0494 0.0176,-0.0917 0.0194,-0.0441 0.0529,-0.0758 0.0335,-0.0335 0.0811,-0.0512 0.0476,-0.0194 0.10407,-0.0194 0.067,0 0.11642,0.0247 0.0494,0.0229 0.0829,0.0653 0.0335,0.0406 0.0494,0.0953 0.0159,0.0529 0.0159,0.11289 0,0.0847 -0.0264,0.17815 -0.0247,0.0935 -0.0741,0.18697 -0.0494,0.0935 -0.12171,0.18168 -0.0723,0.0882 -0.1658,0.16228 l -0.0759,-0.0688 q -0.0318,-0.0265 -0.0318,-0.0653 0,-0.0141 0.009,-0.0317 0.0106,-0.0176 0.0247,-0.0318 0.0194,-0.0212 0.0476,-0.0529 0.0282,-0.03 0.0564,-0.0706 0.0282,-0.0388 0.0512,-0.0864 0.0247,-0.0459 0.0353,-0.0988 -0.0547,0 -0.10055,-0.0194 -0.0459,-0.0212 -0.0794,-0.0564 -0.0318,-0.0353 -0.0511,-0.0829 -0.0176,-0.0476 -0.0176,-0.10407 z"
         style="font-style:normal;font-variant:normal;font-weight:bold;font-stretch:normal;font-size:3.52778px;font-family:Lato;-inkscape-font-specification:'Lato Bold';fill:#393939;fill-opacity:1;stroke-width:0.264583"
         id="path943" />
      <path
         d="m 111.17628,139.8994 v 0.9966 h -0.47449 v -2.55059 h 0.77788 q 0.26105,0 0.44626,0.0547 0.18697,0.0529 0.30515,0.14993 0.11995,0.097 0.17463,0.23284 0.0564,0.13405 0.0564,0.29633 0,0.12876 -0.0388,0.24342 -0.037,0.11465 -0.10936,0.20814 -0.0706,0.0935 -0.17639,0.16404 -0.10407,0.0705 -0.23813,0.11289 0.09,0.0512 0.15522,0.1464 l 0.63853,0.94192 h -0.42686 q -0.0617,0 -0.10583,-0.0247 -0.0423,-0.0247 -0.0723,-0.0705 l -0.53623,-0.81669 q -0.03,-0.0459 -0.067,-0.0653 -0.0353,-0.0194 -0.10584,-0.0194 z m 0,-0.34043 h 0.29633 q 0.13406,0 0.23283,-0.0335 0.10054,-0.0335 0.16404,-0.0917 0.0653,-0.06 0.097,-0.14111 0.0318,-0.0811 0.0318,-0.17815 0,-0.19403 -0.12877,-0.2981 -0.127,-0.10407 -0.38981,-0.10407 h -0.30339 z"
         style="font-style:normal;font-variant:normal;font-weight:bold;font-stretch:normal;font-size:3.52778px;font-family:Lato;-inkscape-font-specification:'Lato Bold';fill:#393939;fill-opacity:1;stroke-width:0.264583"
         id="path945" />
      <path
         d="m 115.01538,138.34541 v 0.37747 h -1.13065 v 0.70732 h 0.89076 v 0.36513 h -0.89076 v 0.72143 h 1.13065 v 0.37924 h -1.60867 v -2.55059 z"
         style="font-style:normal;font-variant:normal;font-weight:bold;font-stretch:normal;font-size:3.52778px;font-family:Lato;-inkscape-font-specification:'Lato Bold';fill:#393939;fill-opacity:1;stroke-width:0.264583"
         id="path947" />
      <path
         d="m 117.58977,140.29451 q 0.0388,0 0.067,0.03 l 0.18697,0.20284 q -0.15522,0.19227 -0.38277,0.29457 -0.22577,0.10231 -0.54327,0.10231 -0.28399,0 -0.51153,-0.097 -0.22578,-0.097 -0.38629,-0.26987 -0.16052,-0.17286 -0.24695,-0.41275 -0.0847,-0.23989 -0.0847,-0.52388 0,-0.28751 0.0953,-0.52564 0.0953,-0.23988 0.26812,-0.41275 0.17286,-0.17286 0.41275,-0.26811 0.24165,-0.097 0.53269,-0.097 0.28399,0 0.49565,0.0917 0.21344,0.09 0.36513,0.23989 l -0.15875,0.22049 q -0.0141,0.0212 -0.037,0.037 -0.0212,0.0159 -0.06,0.0159 -0.0406,0 -0.0829,-0.0318 -0.0423,-0.0317 -0.10759,-0.0688 -0.0653,-0.037 -0.16581,-0.0688 -0.0988,-0.0317 -0.25224,-0.0317 -0.17991,0 -0.33161,0.0635 -0.14993,0.0617 -0.25929,0.17815 -0.1076,0.11642 -0.16933,0.28399 -0.06,0.1658 -0.06,0.37394 0,0.2152 0.06,0.38277 0.0617,0.16757 0.1658,0.28222 0.10407,0.11465 0.24518,0.17639 0.14111,0.06 0.30339,0.06 0.097,0 0.17463,-0.0106 0.0794,-0.0106 0.14464,-0.0335 0.067,-0.0229 0.12523,-0.0582 0.06,-0.037 0.11818,-0.09 0.0176,-0.0159 0.037,-0.0247 0.0194,-0.0106 0.0423,-0.0106 z"
         style="font-style:normal;font-variant:normal;font-weight:bold;font-stretch:normal;font-size:3.52778px;font-family:Lato;-inkscape-font-specification:'Lato Bold';fill:#393939;fill-opacity:1;stroke-width:0.264583"
         id="path949" />
      <path
         d="m 119.74612,139.90469 v 0.99131 h -0.47448 v -0.99131 l -0.92957,-1.55928 h 0.41804 q 0.0617,0 0.097,0.03 0.037,0.03 0.0617,0.0758 l 0.46743,0.85196 q 0.0406,0.0759 0.0706,0.14464 0.03,0.067 0.0547,0.13229 0.0229,-0.067 0.0512,-0.13405 0.03,-0.0688 0.0705,-0.14288 l 0.46391,-0.85196 q 0.0194,-0.0388 0.0582,-0.0723 0.0388,-0.0335 0.0988,-0.0335 h 0.41981 z"
         style="font-style:normal;font-variant:normal;font-weight:bold;font-stretch:normal;font-size:3.52778px;font-family:Lato;-inkscape-font-specification:'Lato Bold';fill:#393939;fill-opacity:1;stroke-width:0.264583"
         id="path951" />
      <path
         d="m 122.94317,140.29451 q 0.0388,0 0.067,0.03 l 0.18698,0.20284 q -0.15523,0.19227 -0.38277,0.29457 -0.22578,0.10231 -0.54328,0.10231 -0.28398,0 -0.51152,-0.097 -0.22578,-0.097 -0.3863,-0.26987 -0.16051,-0.17286 -0.24694,-0.41275 -0.0847,-0.23989 -0.0847,-0.52388 0,-0.28751 0.0952,-0.52564 0.0953,-0.23988 0.26811,-0.41275 0.17286,-0.17286 0.41275,-0.26811 0.24166,-0.097 0.5327,-0.097 0.28398,0 0.49565,0.0917 0.21343,0.09 0.36513,0.23989 l -0.15875,0.22049 q -0.0141,0.0212 -0.037,0.037 -0.0212,0.0159 -0.06,0.0159 -0.0406,0 -0.0829,-0.0318 -0.0423,-0.0317 -0.1076,-0.0688 -0.0653,-0.037 -0.1658,-0.0688 -0.0988,-0.0317 -0.25224,-0.0317 -0.17992,0 -0.33161,0.0635 -0.14993,0.0617 -0.25929,0.17815 -0.1076,0.11642 -0.16934,0.28399 -0.06,0.1658 -0.06,0.37394 0,0.2152 0.06,0.38277 0.0617,0.16757 0.16581,0.28222 0.10407,0.11465 0.24518,0.17639 0.14111,0.06 0.30339,0.06 0.097,0 0.17462,-0.0106 0.0794,-0.0106 0.14464,-0.0335 0.067,-0.0229 0.12524,-0.0582 0.06,-0.037 0.11818,-0.09 0.0176,-0.0159 0.037,-0.0247 0.0194,-0.0106 0.0423,-0.0106 z"
         style="font-style:normal;font-variant:normal;font-weight:bold;font-stretch:normal;font-size:3.52778px;font-family:Lato;-inkscape-font-specification:'Lato Bold';fill:#393939;fill-opacity:1;stroke-width:0.264583"
         id="path953" />
      <path
         d="m 124.43983,140.50441 h 1.02129 v 0.39159 h -1.49578 v -2.55059 h 0.47449 z"
         style="font-style:normal;font-variant:normal;font-weight:bold;font-stretch:normal;font-size:3.52778px;font-family:Lato;-inkscape-font-specification:'Lato Bold';fill:#393939;fill-opacity:1;stroke-width:0.264583"
         id="path955" />
      <path
         d="m 127.80797,138.34541 v 0.37747 h -1.13066 v 0.70732 h 0.89077 v 0.36513 h -0.89077 v 0.72143 h 1.13066 v 0.37924 h -1.60867 v -2.55059 z"
         style="font-style:normal;font-variant:normal;font-weight:bold;font-stretch:normal;font-size:3.52778px;font-family:Lato;-inkscape-font-specification:'Lato Bold';fill:#393939;fill-opacity:1;stroke-width:0.264583"
         id="path957" />
      <path
         d="m 128.51264,140.62788 q 0,-0.0494 0.0176,-0.0917 0.0194,-0.0441 0.0529,-0.0758 0.0335,-0.0335 0.0811,-0.0512 0.0476,-0.0194 0.10407,-0.0194 0.067,0 0.11642,0.0247 0.0494,0.0229 0.0829,0.0653 0.0335,0.0406 0.0494,0.0953 0.0159,0.0529 0.0159,0.11289 0,0.0847 -0.0265,0.17815 -0.0247,0.0935 -0.0741,0.18697 -0.0494,0.0935 -0.12171,0.18168 -0.0723,0.0882 -0.1658,0.16228 l -0.0758,-0.0688 q -0.0318,-0.0265 -0.0318,-0.0653 0,-0.0141 0.009,-0.0317 0.0106,-0.0176 0.0247,-0.0318 0.0194,-0.0212 0.0476,-0.0529 0.0282,-0.03 0.0564,-0.0706 0.0282,-0.0388 0.0512,-0.0864 0.0247,-0.0459 0.0353,-0.0988 -0.0547,0 -0.10054,-0.0194 -0.0459,-0.0212 -0.0794,-0.0564 -0.0318,-0.0353 -0.0512,-0.0829 -0.0176,-0.0476 -0.0176,-0.10407 z"
         style="font-style:normal;font-variant:normal;font-weight:bold;font-stretch:normal;font-size:3.52778px;font-family:Lato;-inkscape-font-specification:'Lato Bold';fill:#393939;fill-opacity:1;stroke-width:0.264583"
         id="path959" />
      <path
         d="m 131.41423,139.8994 v 0.9966 h -0.47449 v -2.55059 h 0.77787 q 0.26106,0 0.44627,0.0547 0.18697,0.0529 0.30515,0.14993 0.11995,0.097 0.17463,0.23284 0.0564,0.13405 0.0564,0.29633 0,0.12876 -0.0388,0.24342 -0.0371,0.11465 -0.10937,0.20814 -0.0705,0.0935 -0.17638,0.16404 -0.10407,0.0705 -0.23813,0.11289 0.09,0.0512 0.15522,0.1464 l 0.63853,0.94192 h -0.42686 q -0.0617,0 -0.10583,-0.0247 -0.0423,-0.0247 -0.0723,-0.0705 l -0.53623,-0.81669 q -0.03,-0.0459 -0.067,-0.0653 -0.0353,-0.0194 -0.10584,-0.0194 z m 0,-0.34043 h 0.29633 q 0.13405,0 0.23283,-0.0335 0.10054,-0.0335 0.16404,-0.0917 0.0653,-0.06 0.097,-0.14111 0.0317,-0.0811 0.0317,-0.17815 0,-0.19403 -0.12877,-0.2981 -0.127,-0.10407 -0.38982,-0.10407 h -0.30338 z"
         style="font-style:normal;font-variant:normal;font-weight:bold;font-stretch:normal;font-size:3.52778px;font-family:Lato;-inkscape-font-specification:'Lato Bold';fill:#393939;fill-opacity:1;stroke-width:0.264583"
         id="path961" />
      <path
         d="m 135.25333,138.34541 v 0.37747 h -1.13066 v 0.70732 h 0.89077 v 0.36513 h -0.89077 v 0.72143 h 1.13066 v 0.37924 h -1.60867 v -2.55059 z"
         style="font-style:normal;font-variant:normal;font-weight:bold;font-stretch:normal;font-size:3.52778px;font-family:Lato;-inkscape-font-specification:'Lato Bold';fill:#393939;fill-opacity:1;stroke-width:0.264583"
         id="path963" />
      <path
         d="m 135.99327,139.64893 h 0.9137 v 0.36336 h -0.9137 z"
         style="font-style:normal;font-variant:normal;font-weight:bold;font-stretch:normal;font-size:3.52778px;font-family:Lato;-inkscape-font-specification:'Lato Bold';fill:#393939;fill-opacity:1;stroke-width:0.264583"
         id="path965" />
      <path
         d="m 138.77757,140.51323 q 0.13758,0 0.24518,-0.0459 0.10936,-0.0459 0.18345,-0.12876 0.0758,-0.0829 0.11465,-0.20109 0.0406,-0.11818 0.0406,-0.26458 v -1.52753 h 0.47448 v 1.52753 q 0,0.22754 -0.0741,0.42157 -0.0723,0.19226 -0.2099,0.33337 -0.13759,0.13935 -0.33338,0.21873 -0.19579,0.0776 -0.44097,0.0776 -0.24518,0 -0.44097,-0.0776 -0.19579,-0.0794 -0.33338,-0.21873 -0.13582,-0.14111 -0.2099,-0.33337 -0.0723,-0.19403 -0.0723,-0.42157 v -1.52753 h 0.47449 v 1.52577 q 0,0.1464 0.0388,0.26458 0.0406,0.11818 0.11465,0.20285 0.0741,0.0829 0.18169,0.12876 0.10936,0.0459 0.24694,0.0459 z"
         style="font-style:normal;font-variant:normal;font-weight:bold;font-stretch:normal;font-size:3.52778px;font-family:Lato;-inkscape-font-specification:'Lato Bold';fill:#393939;fill-opacity:1;stroke-width:0.264583"
         id="path967" />
      <path
         d="m 142.09633,138.80931 q -0.0194,0.0388 -0.0459,0.0547 -0.0247,0.0159 -0.06,0.0159 -0.0353,0 -0.0794,-0.0265 -0.0441,-0.0282 -0.10407,-0.0617 -0.06,-0.0335 -0.14111,-0.06 -0.0794,-0.0282 -0.18874,-0.0282 -0.0988,0 -0.17286,0.0247 -0.0723,0.0229 -0.12347,0.0653 -0.0494,0.0423 -0.0741,0.1023 -0.0247,0.0582 -0.0247,0.12877 0,0.09 0.0494,0.14993 0.0511,0.06 0.13405,0.10231 0.0829,0.0423 0.18874,0.0758 0.10583,0.0335 0.21519,0.0723 0.11113,0.037 0.21696,0.0882 0.10584,0.0494 0.18874,0.127 0.0829,0.0758 0.13229,0.18697 0.0512,0.11112 0.0512,0.26987 0,0.17287 -0.06,0.32456 -0.0582,0.14993 -0.17286,0.26282 -0.11289,0.11112 -0.27693,0.17639 -0.16404,0.0635 -0.37571,0.0635 -0.12171,0 -0.23989,-0.0247 -0.11818,-0.0229 -0.22754,-0.067 -0.1076,-0.0441 -0.20285,-0.10584 -0.0935,-0.0617 -0.16757,-0.13758 l 0.13759,-0.22754 q 0.0194,-0.0247 0.0459,-0.0406 0.0282,-0.0176 0.0617,-0.0176 0.0441,0 0.0952,0.037 0.0512,0.0353 0.11995,0.0794 0.0706,0.0441 0.16404,0.0811 0.0953,0.0353 0.22754,0.0353 0.20285,0 0.31397,-0.0952 0.11113,-0.097 0.11113,-0.27693 0,-0.10054 -0.0512,-0.16404 -0.0494,-0.0635 -0.1323,-0.10583 -0.0829,-0.0441 -0.18873,-0.0741 -0.10584,-0.03 -0.2152,-0.0653 -0.10936,-0.0353 -0.21519,-0.0847 -0.10583,-0.0494 -0.18874,-0.12876 -0.0829,-0.0794 -0.13405,-0.19756 -0.0494,-0.11994 -0.0494,-0.29457 0,-0.13934 0.0547,-0.27164 0.0564,-0.13229 0.16228,-0.23459 0.10759,-0.10231 0.26282,-0.16404 0.15522,-0.0617 0.35454,-0.0617 0.22578,0 0.41628,0.0705 0.1905,0.0706 0.32455,0.19756 z"
         style="font-style:normal;font-variant:normal;font-weight:bold;font-stretch:normal;font-size:3.52778px;font-family:Lato;-inkscape-font-specification:'Lato Bold';fill:#393939;fill-opacity:1;stroke-width:0.264583"
         id="path969" />
      <path
         d="m 144.64073,138.34541 v 0.37747 h -1.13065 v 0.70732 h 0.89076 v 0.36513 h -0.89076 v 0.72143 h 1.13065 v 0.37924 h -1.60867 v -2.55059 z"
         style="font-style:normal;font-variant:normal;font-weight:bold;font-stretch:normal;font-size:3.52778px;font-family:Lato;-inkscape-font-specification:'Lato Bold';fill:#393939;fill-opacity:1;stroke-width:0.264583"
         id="path971" />
    </g>
  </g>
</svg>
